<?xml version="1.0" encoding="UTF-8" standalone="no"?>
<!-- Created with Inkscape (http://www.inkscape.org/) -->

<svg
   width="117.30158mm"
   height="130.42941mm"
   viewBox="0 0 117.30158 130.42941"
   version="1.1"
   id="svg7072"
   xml:space="preserve"
   inkscape:version="1.2.2 (732a01da63, 2022-12-09)"
   sodipodi:docname="Icon.svg"
   xmlns:inkscape="http://www.inkscape.org/namespaces/inkscape"
   xmlns:sodipodi="http://sodipodi.sourceforge.net/DTD/sodipodi-0.dtd"
   xmlns="http://www.w3.org/2000/svg"
   xmlns:svg="http://www.w3.org/2000/svg"><sodipodi:namedview
     id="namedview7074"
     pagecolor="#ffffff"
     bordercolor="#000000"
     borderopacity="0.25"
     inkscape:showpageshadow="2"
     inkscape:pageopacity="0.0"
     inkscape:pagecheckerboard="0"
     inkscape:deskcolor="#d1d1d1"
     inkscape:document-units="mm"
     showgrid="false"
     inkscape:zoom="1.4142136"
     inkscape:cx="196.92924"
     inkscape:cy="223.7993"
     inkscape:window-width="1920"
     inkscape:window-height="991"
     inkscape:window-x="-9"
     inkscape:window-y="-9"
     inkscape:window-maximized="1"
     inkscape:current-layer="layer1" /><defs
     id="defs7069" /><g
     inkscape:label="Layer 1"
     inkscape:groupmode="layer"
     id="layer1"
     style="display:inline"
     transform="translate(-50.07402,-79.796376)"><path
       style="fill:#ff7f2a;stroke-width:0.232787"
       d="m 100.5826,88.776203 0.28015,-0.367632 0.84043,-0.406328 0.54028,-0.183816 1.0005,-0.203164 0.94049,-0.154792 0.9805,-0.106419 1.04053,-0.125768 0.81042,-0.0387 1.13057,-0.02903 1.60082,-0.05804 1.1606,-0.0097 0.99051,0.04837 1.23062,0.08707 1.00051,0.06772 0.70036,0.10642 0.83043,0.164466 0.69035,0.106419 0.75039,0.241863 0.42021,0.203163 0.28014,0.251538 0.28015,0.416002 16.19364,58.438275 12.08083,0.005 15.96818,46.20533 -0.24012,6.50125 -103.803144,-0.23218 -0.910468,-6.15298 16.228308,-45.8764 12.266279,-0.15478 z"
       id="path7292"
       sodipodi:nodetypes="ccccccccccccccccccccccccccccccc" /><path
       style="fill:#ffffff;stroke-width:0.232787"
       d="m 97.624933,100.52479 3.661757,2.18515 16.38313,-0.22891 3.53652,-2.43667 4.01097,14.49367 -5.4542,4.70237 -19.48079,0.32373 -5.844877,-6.32533 z"
       id="path7354"
       sodipodi:nodetypes="ccccccccc" /></g></svg>
