<?xml version="1.0" encoding="UTF-8" standalone="no"?>
<!-- Created with Inkscape (http://www.inkscape.org/) -->

<svg
   width="177.91478mm"
   height="172.92314mm"
   viewBox="0 0 177.91478 172.92314"
   version="1.1"
   id="svg135"
   xml:space="preserve"
   inkscape:export-filename="casejolt_icon.svg"
   inkscape:export-xdpi="96"
   inkscape:export-ydpi="96"
   xmlns:inkscape="http://www.inkscape.org/namespaces/inkscape"
   xmlns:sodipodi="http://sodipodi.sourceforge.net/DTD/sodipodi-0.dtd"
   xmlns="http://www.w3.org/2000/svg"
   xmlns:svg="http://www.w3.org/2000/svg"><sodipodi:namedview
     id="namedview137"
     pagecolor="#ffffff"
     bordercolor="#000000"
     borderopacity="0.25"
     inkscape:showpageshadow="2"
     inkscape:pageopacity="0.0"
     inkscape:pagecheckerboard="0"
     inkscape:deskcolor="#d1d1d1"
     inkscape:document-units="mm"
     showgrid="false"
     inkscape:zoom="0.74208053"
     inkscape:cx="181.24718"
     inkscape:cy="307.91806"
     inkscape:window-width="1920"
     inkscape:window-height="991"
     inkscape:window-x="1991"
     inkscape:window-y="-9"
     inkscape:window-maximized="1"
     inkscape:current-layer="layer1-5" /><defs
     id="defs132" /><g
     inkscape:label="Layer 1"
     inkscape:groupmode="layer"
     id="layer1"
     transform="translate(-22.462188,-67.386546)"><g
       inkscape:label="Layer 1"
       id="layer1-5"
       transform="translate(-6.5651635,48.535647)"><g
         id="g690"
         transform="matrix(-1.0510971,-1.1488578,-1.1488578,1.0510971,371.99314,128.28038)"><path
           style="fill:#8b5cf6;fill-opacity:1;stroke-width:0.0879999"
           d="m 103.47784,118.75825 0.48809,-2.05644 -3.27328,-0.87541 -3.925943,-0.2866 -3.711544,0.64762 -4.841648,0.12873 -4.896495,-0.36047 -2.509826,-0.25858 -0.121463,5.50716 0.167361,3.81006 0.52447,3.55483 0.844609,4.67205 0.739963,2.94193 0.750596,1.55213 1.313126,3.96175 1.52078,3.53244 3.229627,6.20738 2.428085,3.18709 2.925712,3.06228 4.154841,4.175 2.686139,2.33799 1.68535,1.45137 3.48206,2.44769 3.95392,2.41915 3.50614,2.01054 3.04154,1.74187 2.34639,0.79258 3.81398,0.62804 -2.36989,-2.01613 -3.73898,-3.14567 -2.87924,-2.50311 -1.88796,-1.77378 -1.97751,-2.21036 -1.97249,-2.96208 -1.33775,-1.8639 -2.17789,-3.8526 -1.29857,-2.78185 -1.04333,-2.42474 -0.93923,-2.58259 -1.19221,-6.03386 -0.49368,-4.40281 0.15392,-4.23995 0.60787,-4.35579 1.13008,-4.80415 z"
           id="path306" /><path
           style="fill:#7c3aed;fill-opacity:1;stroke-width:0.0879999"
           d="m 79.453898,118.85321 0.192538,0.0515 4.131909,1.29072 1.391484,0.35151 0.490883,0.28603 0.280421,1.92155 0.321285,1.34447 0.318482,0.77634 0.649288,0.50376 1.014226,0.0649 1.220766,-0.59163 0.720893,-0.92134 0.395723,-1.28681 0.02967,-1.07524 0.102434,-0.49871 1.095385,-1.20286 2.784085,-0.84407 4.716824,-0.62633 3.384126,0.30672 2.23162,0.56589 0.88325,0.0918 1.62433,-2.06203 1.02039,-2.23387 -0.53734,-0.8452 -1.20957,-0.68454 -1.99823,-1.09147 -2.0514,-1.23981 -1.6971,-2.06315 -1.238676,-3.04435 -0.203752,-2.32398 0.06327,-1.35511 0.342,-1.54876 0.587168,-1.462563 1.715,-1.398206 1.66519,-0.864785 1.62321,-0.514938 0.61625,-0.877112 -0.11028,-1.092027 -0.23451,-1.475999 0.0358,-1.599702 0.28924,-1.583497 0.36999,-1.190542 1.22247,-2.025065 1.08474,-1.587398 1.42956,-0.793687 2.06987,-0.333602 1.2286,-0.775224 0.17972,-0.787522 -0.21606,-1.275069 -0.21774,-1.615938 0.13102,-1.801193 0.71869,-1.375811 0.93698,-1.420592 1.20902,-1.203418 1.8566,-1.040527 1.92939,-0.46402 0.95153,-0.240672 0.4366,-0.08957 -5.41201,-3.871635 -1.54877,-2.116332 -0.97952,-1.89188 -0.59667,-2.243391 -0.11642,-5.890568 -0.0101,-2.045246 -0.006,-1.249875 -0.0232,-0.723162 -0.29316,-0.514251 -0.31166,-0.271567 -0.57973,-0.137035 -0.57261,-0.019 -0.66341,0.175888 -0.75493,0.672371 -0.49871,0.784742 -0.22305,0.853313 0.12483,0.497597 0.1493,0.145668 -9.408426,14.264383 -1.446102,1.076358 -1.727605,1.503139 -1.00807,1.184947 -0.942581,2.058676 -2.346373,4.530435 -1.829189,3.946636 -3.461092,8.910588 -1.387005,3.218997 -0.15977,0.385381 0.04787,0.843218 0.176593,3.023369 0.168201,1.319005 -0.01903,0.57258 -0.305893,0.89305 -2.45049,10.0113 -0.488924,0.99882 -0.948179,0.92244 -1.060402,1.20705 -0.984558,1.52136 -0.305324,1.00666 -0.05737,0.77383 -0.0065,0.46764 z"
           id="path416" /><path
           style="fill:#8b5cf6;fill-opacity:1;stroke-width:0.0879999"
           d="m 132.48572,59.742194 -0.14161,-2.131999 -0.93027,-2.538921 -1.75026,-2.211489 -1.43012,-1.094261 -1.73347,-0.577087 -1.63607,-0.324085 -2.25459,0.09851 -1.91987,0.621298 -1.55212,0.750594 -1.3232,1.09035 -0.86814,1.201746 c -6.45424,8.489117 5.20098,15.82123 11.06747,12.935449 2.44889,-1.639166 3.68526,-3.635231 4.2181,-5.970033 l 2.95828,0.836712 -0.0132,0.497185 c -0.56166,2.151018 -2.57175,5.112605 -4.03203,6.690781 l -2.10849,1.365171 c -2.88388,1.559599 -6.27086,1.501668 -8.99986,0.594946 l -2.31446,-1.413356 -2.92177,-2.26689 -1.62825,-2.282014 -1.45642,-2.88595 -0.5362,-2.392284 0.0677,-2.220436 0.50428,-2.310004 0.99351,-2.364858 1.65679,-2.569141 1.92268,-1.827513 2.07658,-0.744436 2.6033,-0.283777 2.32231,-0.544615 3.25369,-1.327121 3.12272,-1.300243 1.09203,-0.110271 1.05229,0.694068 0.42539,1.186619 0.11532,2.11466 0.28657,1.397081 1.63888,2.666532 0.85862,2.189655 0.68456,2.339112 -0.0425,2.264082 -0.23406,1.932744 -0.53126,1.859911 -0.9134,1.188925 -2.08076,-2.51991 0.29132,-1.183135 0.0928,-0.606154 z"
           id="path521"
           sodipodi:nodetypes="cccccccccccccccccccccccccccccccccccccccccccccccccc" /></g></g></g></svg>
